<svg id="Layer_1" data-name="Layer 1" xmlns="http://www.w3.org/2000/svg" xmlns:xlink="http://www.w3.org/1999/xlink" viewBox="0 0 97.5 94.74"><defs><style>.cls-1{fill:#1d1d1b;}.cls-2{fill:url(#linear-gradient);}</style><linearGradient id="linear-gradient" x1="0.07" y1="19.01" x2="76.1" y2="19.01" gradientUnits="userSpaceOnUse"><stop offset="0" stop-color="#95c11f"/><stop offset="1" stop-color="#009fe3"/></linearGradient></defs><path class="cls-1" d="M.25,46H3.67l7,10.78h0V46h2.58V60.54H10L2.87,49.41h0V60.54H.25Z"/><path class="cls-1" d="M16.28,46h9.61v2.34h-7v3.56h6.66v2.34H18.86v3.94h7.4v2.33h-10Z"/><path class="cls-1" d="M31.49,48.37H27V46H38.52v2.34H34.07V60.54H31.49Z"/><path class="cls-1" d="M44.87,58.21l7.75-9.84H45V46H55.84v2.34L48,58.21H56v2.33H44.87Z"/><path class="cls-1" d="M58,46h9.62v2.34h-7v3.56h6.66v2.34H60.6v3.94H68v2.33H58Z"/><path class="cls-1" d="M70.25,46h5a10.25,10.25,0,0,1,2,.19,5.35,5.35,0,0,1,1.74.67,3.49,3.49,0,0,1,1.2,1.27,4.54,4.54,0,0,1-.42,4.68,3.73,3.73,0,0,1-2.49,1.29l3.86,6.41H78.08l-3.36-6.15H72.83v6.15H70.25Zm4.59,6.15c.37,0,.74,0,1.11,0a3.48,3.48,0,0,0,1-.25,1.75,1.75,0,0,0,.75-.59A1.91,1.91,0,0,0,78,50.17a1.76,1.76,0,0,0-.27-1,1.65,1.65,0,0,0-.69-.59,3.23,3.23,0,0,0-1-.25,7,7,0,0,0-1-.07H72.83v3.94Z"/><path class="cls-1" d="M82.1,53.35a8.48,8.48,0,0,1,.57-3.17,7.32,7.32,0,0,1,1.59-2.43,7.18,7.18,0,0,1,2.42-1.55,9.5,9.5,0,0,1,6.2,0,6.75,6.75,0,0,1,2.44,1.53,7,7,0,0,1,1.6,2.42,8.39,8.39,0,0,1,.58,3.16,8.1,8.1,0,0,1-.58,3.09,7,7,0,0,1-1.6,2.4,7.27,7.27,0,0,1-2.44,1.57,8.86,8.86,0,0,1-6.2,0,7.15,7.15,0,0,1-2.42-1.54,7.25,7.25,0,0,1-1.59-2.39A8.1,8.1,0,0,1,82.1,53.35Zm2.71-.17a6.28,6.28,0,0,0,.36,2.16,4.92,4.92,0,0,0,1,1.7,4.82,4.82,0,0,0,1.57,1.13,5,5,0,0,0,2,.41,5.07,5.07,0,0,0,2-.41A4.86,4.86,0,0,0,93.42,57a5.25,5.25,0,0,0,1-1.7,6.28,6.28,0,0,0,.36-2.16,5.57,5.57,0,0,0-.36-2,5.28,5.28,0,0,0-1-1.66,4.63,4.63,0,0,0-1.58-1.1,5.07,5.07,0,0,0-2-.4,5,5,0,0,0-2,.4,4.6,4.6,0,0,0-1.57,1.1,4.94,4.94,0,0,0-1,1.66A5.57,5.57,0,0,0,84.81,53.18Z"/><path d="M.4,65.76H2.11v7.78H.4Z"/><path d="M3.48,65.76H5.81l3.31,5.41h0V65.76h1.72v7.78H8.61L5.21,68h0v5.54H3.48Z"/><path d="M12.24,65.76h2.58a7.8,7.8,0,0,1,1.77.2,4.14,4.14,0,0,1,1.47.68,3.34,3.34,0,0,1,1,1.22,4.14,4.14,0,0,1,.36,1.81,3.53,3.53,0,0,1-1.31,2.88,4.46,4.46,0,0,1-1.4.74,5.38,5.38,0,0,1-1.66.25H12.24ZM14,72h.89A4.91,4.91,0,0,0,16,71.84a2.45,2.45,0,0,0,.88-.4,2,2,0,0,0,.59-.74,2.67,2.67,0,0,0,.21-1.12,2.19,2.19,0,0,0-.21-1,2,2,0,0,0-.58-.7,2.49,2.49,0,0,0-.85-.41,3.88,3.88,0,0,0-1-.14H14Z"/><path d="M27,70.54a3.78,3.78,0,0,1-.21,1.28A2.74,2.74,0,0,1,25.1,73.5a3.88,3.88,0,0,1-1.42.24,3.93,3.93,0,0,1-1.43-.24,2.83,2.83,0,0,1-1-.67,2.9,2.9,0,0,1-.62-1,3.78,3.78,0,0,1-.21-1.28V65.76h1.72v4.71a2.11,2.11,0,0,0,.11.68,1.69,1.69,0,0,0,.33.53,1.46,1.46,0,0,0,.5.35,1.48,1.48,0,0,0,.63.13,1.45,1.45,0,0,0,.63-.13,1.33,1.33,0,0,0,.49-.35,1.69,1.69,0,0,0,.33-.53,1.87,1.87,0,0,0,.11-.68V65.76H27Z"/><path d="M32.2,67.66a1.17,1.17,0,0,0-.57-.39,1.9,1.9,0,0,0-.68-.13,1.73,1.73,0,0,0-.38,0,1.71,1.71,0,0,0-.38.13,1,1,0,0,0-.28.25.59.59,0,0,0-.11.38.61.61,0,0,0,.26.53,2.46,2.46,0,0,0,.67.32l.86.27a3.74,3.74,0,0,1,.87.37,2.15,2.15,0,0,1,.66.65,1.93,1.93,0,0,1,.26,1.09,2.51,2.51,0,0,1-.24,1.13,2.45,2.45,0,0,1-.65.81,2.87,2.87,0,0,1-1,.47,4.26,4.26,0,0,1-1.15.15A4.34,4.34,0,0,1,29,73.51a3.47,3.47,0,0,1-1.21-.75L29,71.42a1.79,1.79,0,0,0,.67.55,1.87,1.87,0,0,0,1.25.14,1.13,1.13,0,0,0,.39-.15.93.93,0,0,0,.27-.25.67.67,0,0,0,.11-.37.65.65,0,0,0-.27-.55,2.55,2.55,0,0,0-.68-.35c-.27-.09-.56-.19-.88-.28a4.36,4.36,0,0,1-.88-.39,2,2,0,0,1-.67-.64,1.8,1.8,0,0,1-.27-1,2.38,2.38,0,0,1,.24-1.1,2.43,2.43,0,0,1,.66-.79,2.71,2.71,0,0,1,1-.48A3.77,3.77,0,0,1,31,65.56a4.48,4.48,0,0,1,1.27.18,3.07,3.07,0,0,1,1.11.63Z"/><path d="M36,67.27H33.75V65.76h6.16v1.51H37.68v6.27H36Z"/><path d="M40.58,65.76h3a5.16,5.16,0,0,1,1.13.11,2.69,2.69,0,0,1,.93.39,1.94,1.94,0,0,1,.64.72,2.46,2.46,0,0,1,.24,1.14,2.31,2.31,0,0,1-.43,1.4,1.9,1.9,0,0,1-1.26.73l2,3.29H44.77l-1.63-3.11h-.85v3.11H40.58ZM42.29,69h1l.49,0a1.35,1.35,0,0,0,.47-.1.75.75,0,0,0,.35-.26.77.77,0,0,0,.14-.49.73.73,0,0,0-.13-.47.77.77,0,0,0-.3-.27,1.44,1.44,0,0,0-.43-.13l-.47,0H42.29Z"/><path d="M49,70.22l-2.92-4.46h2.13l1.65,2.91,1.75-2.91h2l-2.93,4.46v3.32H49Z"/><path d="M.4,76.26H2.11V84H.4Z"/><path d="M3.48,76.26H5.81l3.31,5.41h0V76.26h1.72V84H8.61L5.21,78.5h0V84H3.48Z"/><path d="M12.24,76.26h2.33l3.31,5.41h0V76.26h1.71V84H17.38L14,78.5h0V84H12.24Z"/><path d="M20.59,80.15a4.35,4.35,0,0,1,.32-1.69,3.67,3.67,0,0,1,.87-1.3,4.08,4.08,0,0,1,1.33-.82,4.78,4.78,0,0,1,1.68-.28,4.87,4.87,0,0,1,1.69.28,4.19,4.19,0,0,1,1.33.82,3.81,3.81,0,0,1,.87,1.3,4.62,4.62,0,0,1,0,3.38,3.81,3.81,0,0,1-.87,1.3,4,4,0,0,1-1.33.82,4.87,4.87,0,0,1-1.69.28A4.78,4.78,0,0,1,23.11,84a3.92,3.92,0,0,1-1.33-.82,3.67,3.67,0,0,1-.87-1.3A4.35,4.35,0,0,1,20.59,80.15Zm1.78,0a3,3,0,0,0,.17,1A2.56,2.56,0,0,0,23,82a2.28,2.28,0,0,0,.77.52,2.7,2.7,0,0,0,2,0,2.14,2.14,0,0,0,.76-.52,2.23,2.23,0,0,0,.49-.79,3.06,3.06,0,0,0,0-2,2.19,2.19,0,0,0-.49-.8,2.14,2.14,0,0,0-.76-.52,2.7,2.7,0,0,0-2,0,2.28,2.28,0,0,0-.77.52,2.5,2.5,0,0,0-.49.8A3,3,0,0,0,22.37,80.15Z"/><path d="M29.19,76.26h2l1.93,5.1h0l2-5.1h1.83L33.68,84H32.31Z"/><path d="M39.47,76.26h1.42L44.27,84H42.34l-.67-1.65h-3L38,84H36.1Zm.66,2.26-1,2.42h1.9Z"/><path d="M45.35,77.77H43.13V76.26h6.16v1.51H47.07V84H45.35Z"/><path d="M49.94,76.26h1.72V84H49.94Z"/><path d="M52.6,80.15a4.54,4.54,0,0,1,.31-1.69,3.83,3.83,0,0,1,.88-1.3,4.08,4.08,0,0,1,1.33-.82,4.78,4.78,0,0,1,1.68-.28,4.87,4.87,0,0,1,1.69.28,4.19,4.19,0,0,1,1.33.82,3.81,3.81,0,0,1,.87,1.3,4.76,4.76,0,0,1,0,3.38,3.81,3.81,0,0,1-.87,1.3,4,4,0,0,1-1.33.82,4.87,4.87,0,0,1-1.69.28A4.78,4.78,0,0,1,55.12,84a3.92,3.92,0,0,1-1.33-.82,3.83,3.83,0,0,1-.88-1.3A4.54,4.54,0,0,1,52.6,80.15Zm1.78,0a3,3,0,0,0,.17,1A2.56,2.56,0,0,0,55,82a2.18,2.18,0,0,0,.77.52,2.43,2.43,0,0,0,1,.19,2.48,2.48,0,0,0,1-.19,2.24,2.24,0,0,0,1.25-1.31,3.06,3.06,0,0,0,0-2,2.19,2.19,0,0,0-.49-.8,2.24,2.24,0,0,0-.76-.52,2.48,2.48,0,0,0-1-.19,2.43,2.43,0,0,0-1,.19,2.18,2.18,0,0,0-.77.52,2.5,2.5,0,0,0-.49.8A3,3,0,0,0,54.38,80.15Z"/><path d="M62,76.26H64.3l3.31,5.41h0V76.26h1.71V84H67.11l-3.4-5.54h0V84H62Z"/><path d="M5.51,88.78a1.79,1.79,0,0,0-.62-.47A2.08,2.08,0,0,0,4,88.14a2.08,2.08,0,0,0-.9.19,2.14,2.14,0,0,0-.71.52,2.47,2.47,0,0,0-.48.8,3.06,3.06,0,0,0,0,2,2.71,2.71,0,0,0,.47.79,2.1,2.1,0,0,0,.7.52,1.93,1.93,0,0,0,.86.19,2,2,0,0,0,.94-.22,1.89,1.89,0,0,0,.67-.62L7,93.39a3,3,0,0,1-1.26,1,3.83,3.83,0,0,1-1.56.33,4.78,4.78,0,0,1-1.68-.28,3.92,3.92,0,0,1-1.33-.82,3.69,3.69,0,0,1-.88-1.3A4.76,4.76,0,0,1,.31,89a3.69,3.69,0,0,1,.88-1.3,4.08,4.08,0,0,1,1.33-.82,4.78,4.78,0,0,1,1.68-.28,4.2,4.2,0,0,1,.69.06,3.46,3.46,0,0,1,.7.19,3.56,3.56,0,0,1,.67.35,2.9,2.9,0,0,1,.57.54Z"/><path d="M7.82,86.76h5.29v1.58H9.54v1.45h3.37v1.59H9.54V93h3.77v1.58H7.82Z"/><path d="M14.49,86.76h2.33l3.31,5.41h0V86.76h1.72v7.78H19.62L16.22,89h0v5.54H14.49Z"/><path d="M24.76,88.27H22.54V86.76H28.7v1.51H26.48v6.27H24.76Z"/><path d="M29.37,86.76h3a5.1,5.1,0,0,1,1.13.11,2.74,2.74,0,0,1,.94.39,1.92,1.92,0,0,1,.63.72,2.46,2.46,0,0,1,.24,1.14,2.24,2.24,0,0,1-.43,1.4,1.88,1.88,0,0,1-1.25.73l2,3.29H33.56l-1.63-3.11h-.85v3.11H29.37ZM31.08,90h1l.49,0a1.3,1.3,0,0,0,.46-.1.75.75,0,0,0,.35-.26.77.77,0,0,0,.14-.49.75.75,0,0,0-.43-.74,1.44,1.44,0,0,0-.43-.13l-.47,0H31.08Z"/><path d="M36.37,86.76h5.29v1.58H38.08v1.45h3.38v1.59H38.08V93h3.77v1.58H36.37Z"/><path class="cls-2" d="M.07,38H22.88a15.21,15.21,0,1,1,30.41,0H76.1a38,38,0,1,0-76,0"/></svg>